#!OML:ASF H:\MichaelJackson\Top Level 1\Subject 1\Session 1\male.ASF
:FULLY-SPECIFIED
:DEGREES
1034
root 2.60173 15.7712 29.2131 -174.752 164.96 182.885
lowerback -4.21565 -4.66871 2.78908
upperback -0.374727 -6.27489 -4.95583
thorax 1.10753 -3.13618 -6.99495
lowerneck -5.92081 -2.69176 3.56876
upperneck 2.68012 -4.03603 3.97195
head 1.85784 -1.8718 0.50835
rclavicle -7.0991e-014 -5.1684e-014
rhumerus 3.36993 -24.7774 4.8423
rradius 29.1344
rwrist -6.66169
rhand -35.1202 -49.826
rfingers 7.12502
rthumb -8.26082 640.355
lclavicle -7.0991e-014 -5.1684e-014
lhumerus -56.7405 -35.6925 111.658
lradius 51.6757
lwrist 26.7231
lhand 34.4776 25.1451
lfingers 7.12502
lthumb 57.6811 41.1492
rfemur -22.5505 -10.0804 -2.58428
rtibia 47.1293
rfoot -20.6361 -3.96838
rtoes -35.9855
lfemur 0.579968 -11.6962 0.650512
ltibia 14.142
lfoot -26.0968 -0.536868
ltoes -27.8658
1035
root 2.59932 15.7548 29.2044 -174.606 165.355 182.916
lowerback -4.2322 -4.69362 2.72354
upperback -0.361617 -6.30612 -4.87553
thorax 1.14238 -3.15046 -6.87663
lowerneck -5.89409 -2.48296 3.73113
upperneck 2.45529 -3.75201 3.84744
head 1.77269 -1.73838 0.453228
rclavicle 4.92737e-014 5.56597e-015
rhumerus 3.59002 -24.6656 4.84573
rradius 29.1014
rwrist -3.86125
rhand -34.1924 -50.3919
rfingers 7.12502
rthumb -7.3653 639.756
lclavicle 4.92737e-014 5.56597e-015
lhumerus -56.7377 -35.6942 111.828
lradius 51.4764
lwrist 26.7706
lhand 34.2565 24.6491
lfingers 7.12502
lthumb 57.4876 40.8216
rfemur -23.1113 -10.1718 -2.60022
rtibia 47.4477
rfoot -20.7941 -3.59995
rtoes -35.7904
lfemur 0.755754 -12.2342 0.471138
ltibia 13.9823
lfoot -25.9927 0.77852
ltoes -28.2671
1036
root 2.59804 15.7375 29.1918 -174.53 165.833 182.97
lowerback -4.15451 -4.68541 2.60507
upperback -0.322346 -6.28946 -4.80026
thorax 1.16348 -3.14065 -6.725
lowerneck -5.85353 -2.28941 3.8781
upperneck 2.18947 -3.48537 3.73509
head 1.67353 -1.6148 0.404161
rclavicle -6.01821e-014 1.43125e-014
rhumerus 3.95313 -24.9809 4.63507
rradius 28.9524
rwrist -2.55826
rhand -33.5148 -50.8943
rfingers 7.12502
rthumb -6.7112 639.232
lclavicle -6.01821e-014 1.43125e-014
lhumerus -56.6887 -35.7772 112.019
lradius 51.3143
lwrist 26.8816
lhand 34.0065 24.3134
lfingers 7.12502
lthumb 57.2684 40.6736
rfemur -23.6664 -10.1982 -2.66753
rtibia 47.7918
rfoot -20.9145 -3.14246
rtoes -35.6012
lfemur 1.01867 -12.6595 0.263598
ltibia 13.8232
lfoot -25.901 1.84997
ltoes -28.5501
1037
root 2.59756 15.72 29.1763 -174.527 166.361 183.037
lowerback -3.98898 -4.64937 2.45055
upperback -0.260465 -6.23313 -4.74065
thorax 1.16607 -3.11117 -6.56148
lowerneck -5.79482 -2.11837 4.01875
upperneck 1.89799 -3.24775 3.65836
head 1.5648 -1.50587 0.366538
rclavicle -3.64024e-014 -1.82882e-014
rhumerus 4.37468 -25.4485 4.28319
rradius 28.7706
rwrist -3.06343
rhand -33.2665 -51.3151
rfingers 7.12502
rthumb -6.47151 638.804
lclavicle -3.64024e-014 -1.82882e-014
lhumerus -56.6254 -35.9448 112.223
lradius 51.213
lwrist 27.0243
lhand 33.7361 24.103
lfingers 7.12502
lthumb 57.0309 40.6633
rfemur -24.169 -10.1739 -2.76606
rtibia 48.1182
rfoot -21.0321 -2.65121
rtoes -35.4207
lfemur 1.35321 -12.9113 0.0535869
ltibia 13.6632
lfoot -25.8433 2.60579
ltoes -28.6973
1038
root 2.59771 15.7032 29.1595 -174.589 166.911 183.101
lowerback -3.75355 -4.59218 2.28553
upperback -0.178898 -6.14771 -4.7034
thorax 1.15174 -3.06734 -6.40955
lowerneck -5.72833 -1.97332 4.16134
upperneck 1.60189 -3.04612 3.6323
head 1.45506 -1.41407 0.343193
rclavicle 6.17723e-014 6.36111e-014
rhumerus 4.77566 -25.925 3.85008
rradius 28.6116
rwrist -5.01402
rhand -33.3955 -51.5553
rfingers 7.12502
rthumb -6.59604 638.567
lclavicle 6.17723e-014 6.36111e-014
lhumerus -56.5577 -36.1891 112.42
lradius 51.1717
lwrist 27.1431
lhand 33.5009 23.9921
lfingers 7.12502
lthumb 56.8239 40.7238
rfemur -24.5851 -10.1125 -2.86946
rtibia 48.3897
rfoot -21.1616 -2.18245
rtoes -35.283
lfemur 1.73808 -12.971 -0.132672
ltibia 13.5051
lfoot -25.832 3.01258
ltoes -28.67
1039
root 2.59818 15.6881 29.1427 -174.706 167.454 183.148
lowerback -3.46611 -4.51783 2.13811
upperback -0.0873855 -6.04027 -4.69378
thorax 1.11574 -3.01293 -6.29209
lowerneck -5.65769 -1.85832 4.31772
upperneck 1.32679 -2.88756 3.6558
head 1.35267 -1.34231 0.331441
rclavicle 3.67255e-014 1.66979e-014
rhumerus 5.08212 -26.299 3.40315
rradius 28.4884
rwrist -7.7248
rhand -33.8375 -51.6805
rfingers 7.12502
rthumb -7.02268 638.456
lclavicle 3.67255e-014 1.66979e-014
lhumerus -56.5033 -36.5095 112.604
lradius 51.1701
lwrist 27.1896
lhand 33.3946 23.9141
lfingers 7.12502
lthumb 56.7303 40.7226
rfemur -24.8986 -10.0265 -2.95261
rtibia 48.585
rfoot -21.3057 -1.77065
rtoes -35.2057
lfemur 2.14619 -12.8276 -0.269641
ltibia 13.3542
lfoot -25.865 3.07406
ltoes -28.4775
1040
root 2.59883 15.6758 29.1268 -174.854 167.969 183.172
lowerback -3.15627 -4.42904 2.02512
upperback 0.00474658 -5.91537 -4.71151
thorax 1.06278 -2.95016 -6.22092
lowerneck -5.58516 -1.77381 4.47502
upperneck 1.0839 -2.77222 3.73682
head 1.26164 -1.29041 0.335864
rclavicle -8.80119e-014 -6.52014e-014
rhumerus 5.27313 -26.6045 2.96343
rradius 28.3605
rwrist -10.2415
rhand -34.3557 -51.7123
rfingers 7.12502
rthumb -7.5229 638.442
lclavicle -8.80119e-014 -6.52014e-014
lhumerus -56.4597 -36.8806 112.76
lradius 51.1823
lwrist 27.1356
lhand 33.4728 23.8222
lfingers 7.12502
lthumb 56.7992 40.5743
rfemur -25.1203 -9.92507 -3.00433
rtibia 48.7013
rfoot -21.4534 -1.43122
rtoes -35.1993
lfemur 2.54278 -12.5127 -0.34996
ltibia 13.2205
lfoot -25.925 2.85464
ltoes -28.1608
1041
root 2.59959 15.6665 29.1123 -175.005 168.446 183.172
lowerback -2.85638 -4.3275 1.95195
upperback 0.0874005 -5.77548 -4.75001
thorax 1.00071 -2.88017 -6.19487
lowerneck -5.5137 -1.71808 4.62653
upperneck 0.88325 -2.69717 3.85672
head 1.1852 -1.25704 0.351844
rclavicle -2.73329e-015 1.51076e-014
rhumerus 5.33675 -26.825 2.5572
rradius 28.2013
rwrist -11.885
rhand -34.7526 -51.6583
rfingers 7.12502
rthumb -7.90602 638.51
lclavicle -2.73329e-015 1.51076e-014
lhumerus -56.4187 -37.2667 112.882
lradius 51.1838
lwrist 26.999
lhand 33.7189 23.7027
lfingers 7.12502
lthumb 57.0158 40.2755
rfemur -25.2834 -9.80944 -3.02008
rtibia 48.7524
rfoot -21.5833 -1.15548
rtoes -35.2252
lfemur 2.89584 -12.0742 -0.377156
ltibia 13.1149
lfoot -25.9909 2.45849
ltoes -27.7864
1042
root 2.60073 15.6604 29.0994 -175.13 168.886 183.155
lowerback -2.59312 -4.21621 1.91301
upperback 0.15182 -5.62436 -4.79836
thorax 0.937064 -2.80478 -6.20145
lowerneck -5.45003 -1.68498 4.75549
upperneck 0.730258 -2.65327 3.99343
head 1.12597 -1.2378 0.375515
rclavicle 6.75868e-014 -1.59028e-015
rhumerus 5.27911 -26.9151 2.21675
rradius 28.0087
rwrist -12.3954
rhand -34.8973 -51.5773
rfingers 7.12502
rthumb -8.04567 638.596
lclavicle 6.75868e-014 -1.59028e-015
lhumerus -56.3672 -37.6231 112.968
lradius 51.16
lwrist 26.8154
lhand 34.0842 23.5859
lfingers 7.12502
lthumb 57.3366 39.8881
rfemur -25.429 -9.68196 -3.00732
rtibia 48.7616
rfoot -21.68 -0.931095
rtoes -35.2611
lfemur 3.18104 -11.5787 -0.370385
ltibia 13.0485
lfoot -26.0491 2.00147
ltoes -27.3983
1043
root 2.6025 15.657 29.0881 -175.209 169.291 183.133
lowerback -2.38694 -4.09705 1.89428
upperback 0.19298 -5.46386 -4.84871
thorax 0.880344 -2.72485 -6.22606
lowerneck -5.39857 -1.66753 4.85877
upperneck 0.621717 -2.6307 4.1169
head 1.08316 -1.22823 0.398374
rclavicle -1.2275e-014 -1.90833e-014
rhumerus 5.121 -26.8714 1.95359
rradius 27.8062
rwrist -11.8902
rhand -34.7769 -51.48
rfingers 7.12502
rthumb -7.92944 638.689
lclavicle -1.2275e-014 -1.90833e-014
lhumerus -56.3014 -37.9241 113.024
lradius 51.1091
lwrist 26.63
lhand 34.5096 23.5157
lfingers 7.12502
lthumb 57.7091 39.4953
rfemur -25.5944 -9.54596 -2.9813
rtibia 48.7538
rfoot -21.7301 -0.74686
rtoes -35.2942
lfemur 3.3851 -11.0826 -0.357221
ltibia 13.0249
lfoot -26.0935 1.58938
ltoes -27.0504
1044
root 2.60527 15.656 29.0779 -175.231 169.669 183.114
lowerback -2.24551 -3.97232 1.89285
upperback 0.207072 -5.29697 -4.89575
thorax 0.831573 -2.64195 -6.2617
lowerneck -5.35959 -1.65891 4.93628
upperneck 0.554454 -2.61998 4.20271
head 1.0554 -1.22392 0.413171
rclavicle -6.32135e-014 7.95139e-015
rhumerus 4.87177 -26.6398 1.78433
rradius 27.6524
rwrist -10.8518
rhand -34.5222 -51.3737
rfingers 7.12502
rthumb -7.68359 638.786
lclavicle -6.32135e-014 7.95139e-015
lhumerus -56.2367 -38.1552 113.066
lradius 51.0453
lwrist 26.484
lhand 34.9087 23.534
lfingers 7.12502
lthumb 58.0576 39.2036
rfemur -25.8047 -9.40169 -2.95037
rtibia 48.7477
rfoot -21.726 -0.586301
rtoes -35.2907
lfemur 3.50745 -10.6368 -0.356451
ltibia 13.0419
lfoot -26.123 1.30816
ltoes -26.7925
1045
root 2.60926 15.6565 29.0685 -175.194 170.023 183.112
lowerback -2.17227 -3.84874 1.8886
upperback 0.200396 -5.13182 -4.93578
thorax 0.800463 -2.55987 -6.29347
lowerneck -5.33578 -1.6502 4.98846
upperneck 0.514066 -2.60864 4.23686
head 1.03834 -1.2192 0.415881
rclavicle -7.45443e-016 -1.43125e-014
rhumerus 4.57703 -26.2536 1.69327
rradius 27.5746
rwrist -9.73
rhand -34.2191 -51.2166
rfingers 7.12502
rthumb -7.39101 638.933
lclavicle -7.45443e-016 -1.43125e-014
lhumerus -56.1745 -38.3118 113.1
lradius 50.9867
lwrist 26.3991
lhand 35.2012 23.6348
lfingers 7.12502
lthumb 58.3123 39.0726
rfemur -26.0666 -9.24925 -2.93387
rtibia 48.7516
rfoot -21.677 -0.462109
rtoes -35.2893
lfemur 3.55698 -10.279 -0.392809
ltibia 13.0905
lfoot -26.1397 1.19148
ltoes -26.6122
1046
root 2.61457 15.658 29.0596 -175.112 170.352 183.121
lowerback -2.15422 -3.73212 1.88735
upperback 0.177958 -4.97631 -4.96793
thorax 0.783452 -2.48258 -6.3226
lowerneck -5.31794 -1.63499 5.0232
upperneck 0.483641 -2.58721 4.21701
head 1.02491 -1.20998 0.404892
rclavicle -1.54058e-015 -1.59028e-014
rhumerus 4.27773 -25.7611 1.64503
rradius 27.5839
rwrist -8.90254
rhand -33.9852 -50.9749
rfingers 7.12502
rthumb -7.16529 639.166
lclavicle -1.54058e-015 -1.59028e-014
lhumerus -56.1315 -38.4007 113.136
lradius 50.9479
lwrist 26.3661
lhand 35.3451 23.7978
lfingers 7.12502
lthumb 58.4374 39.1202
rfemur -26.3649 -9.08824 -2.93004
rtibia 48.7627
rfoot -21.5885 -0.356866
rtoes -35.239
lfemur 3.5543 -10.0311 -0.464141
ltibia 13.1579
lfoot -26.1454 1.24295
ltoes -26.4995
